<svg xmlns="http://www.w3.org/2000/svg" width="54.708" height="70.553" viewBox="0 0 54.708 70.553">
  <g id="Group_479" data-name="Group 479" transform="translate(1165 -8736)">
    <path id="Path_897" data-name="Path 897" d="M-1145.1,8779.7c.191.643,2.951,6.052,2.951,6.052s.942.608,1.081.476,3.84-3.954,3.84-3.954l3.8,4.212,4.865-6.785-1.742-1.963-5.943,3.642-2.308.3-5.461-3.94Z" fill="#ef693d"/>
    <g id="doctor" transform="translate(-1172.922 8734.918)">
      <path id="Path_870" data-name="Path 870" d="M24.836,27.45a.9.9,0,0,1-.67-.308c-.928-1.042-3.959-4.767-4.1-8.949a1.049,1.049,0,0,1,.222-.685.98.98,0,0,0,.2-.508c-.006-.053-.093-.123-.124-.151a1.03,1.03,0,0,1-.383-.857,3.177,3.177,0,0,1,.816-2,3.6,3.6,0,0,0-.313-.434,1.06,1.06,0,0,1-.112-1.208l.308-.534c.11-.914.626-4,2.691-5.507a4.54,4.54,0,0,1,3.712-.723,6.973,6.973,0,0,1,2.375-3.1C31.386,1.093,33.983.735,37.181,1.42,45.341,3.179,47.271,6.378,48.3,8.466a3.425,3.425,0,0,1,1.663,1.617,3.065,3.065,0,0,1,.2,1.852A5.364,5.364,0,0,1,51.45,14.5c.329,1.554.145,8.722-4.161,12.432a.874.874,0,0,1-1.041.085,1.027,1.027,0,0,1-.456-1.012q.081-.59.132-1.162a5.97,5.97,0,0,0-1.33-4.326,5.12,5.12,0,0,0-3.851-1.883,14.625,14.625,0,0,1-7.065-2.09l-.222-.126a4.888,4.888,0,0,0-5.142.194A5.778,5.778,0,0,0,25.765,21.5v4.95a1,1,0,0,1-.583.928.857.857,0,0,1-.345.072Zm-2.9-9.008a11.868,11.868,0,0,0,1.968,5.2V21.5a7.836,7.836,0,0,1,3.412-6.57,6.693,6.693,0,0,1,6.983-.282l.245.139a12.9,12.9,0,0,0,6.218,1.854,7.354,7.354,0,0,1,6.987,6.8,14.991,14.991,0,0,0,1.877-8.527,3.7,3.7,0,0,0-1.1-1.884,1.057,1.057,0,0,1-.278-1.153,1.1,1.1,0,0,0,.045-.909,1.727,1.727,0,0,0-.911-.735.947.947,0,0,1-.565-.5c-.9-1.866-2.268-4.679-10-6.346-2.691-.576-4.82-.321-6.318.764a4.983,4.983,0,0,0-1.893,2.82,1,1,0,0,1-.435.666.87.87,0,0,1-.751.1,3.157,3.157,0,0,0-3,.228c-1.657,1.2-1.915,4.244-1.917,4.275a1.061,1.061,0,0,1-.136.445l-.071.124a2.459,2.459,0,0,1,.458,1.689,1.384,1.384,0,0,1-.742,1,.519.519,0,0,0-.1.2,2.173,2.173,0,0,1,.418,1.066,2.847,2.847,0,0,1-.392,1.682ZM21.2,13.7l-.027.015Z" fill="#3c3b5f"/>
      <path id="Path_871" data-name="Path 871" d="M37.026,43.713c-3.962-.107-6.629-2.925-9.208-5.65-.276-.292-.552-.584-.829-.871a10.326,10.326,0,0,1-2.774-7.353V26.154a1,1,0,0,1,2,0v3.757A8.444,8.444,0,0,0,28.43,35.8c.281.292.561.588.841.884,2.4,2.541,4.676,4.941,7.755,5.026,3.024-.085,5.3-2.485,7.7-5.027.28-.295.56-.591.84-.883a8.424,8.424,0,0,0,2.22-5.826V26.15a1,1,0,0,1,2,0v3.757a10.3,10.3,0,0,1-2.777,7.281c-.277.287-.552.579-.828.87-2.581,2.73-5.247,5.548-9.155,5.655Z" transform="translate(-1.262 -0.768)" fill="#3c3b5f"/>
      <path id="Path_872" data-name="Path 872" d="M24.767,31.25c-2.042,0-3.7-2-3.7-4.456a4.83,4.83,0,0,1,1.49-3.579,1,1,0,0,1,1.333,1.492,2.81,2.81,0,0,0-.823,2.087c0,1.424.94,2.6,1.892,2.44a1,1,0,0,1,.331,1.973,3.2,3.2,0,0,1-.523.043Z" transform="translate(-0.617 -0.586)" fill="#3c3b5f"/>
      <path id="Path_873" data-name="Path 873" d="M49.23,31.25a3.1,3.1,0,0,1-.522-.044,1,1,0,1,1,.334-1.972c.947.161,1.891-1.016,1.891-2.44a2.809,2.809,0,0,0-.822-2.087,1,1,0,1,1,1.333-1.492,4.833,4.833,0,0,1,1.489,3.579c0,2.457-1.661,4.456-3.7,4.456Z" transform="translate(-1.877 -0.586)" fill="#3c3b5f"/>
      <path id="Path_874" data-name="Path 874" d="M32.691,53.95H32.6a1,1,0,0,1-.752-.456L27.312,46.42a1,1,0,0,1,.035-1.131l1.7-2.312a1,1,0,0,1,1.36-.242l7.149,4.757A1,1,0,0,1,37.73,49l-4.307,4.63a1,1,0,0,1-.732.32Zm-3.325-8.036,3.471,5.411L35.465,48.5l-5.374-3.575Z" transform="translate(-1.016 -1.168)" fill="#3c3b5f"/>
      <path id="Path_875" data-name="Path 875" d="M41.305,53.95a1,1,0,0,1-.732-.319L36.267,49a1,1,0,0,1,.177-1.513l7.149-4.757a1,1,0,0,1,1.36.242l1.7,2.312a1,1,0,0,1,.036,1.131L42.147,53.49a1,1,0,0,1-.752.456c-.03,0-.06,0-.09,0ZM38.532,48.5l2.628,2.824,3.471-5.411-.725-.988Z" transform="translate(-1.484 -1.168)" fill="#3c3b5f"/>
      <path id="Path_876" data-name="Path 876" d="M59.089,73.35H11.464a3.623,3.623,0,0,1-3.542-3.7V60.727A13.039,13.039,0,0,1,16.8,48.159l10.393-3.176a.952.952,0,0,1,1.187.68,1.008,1.008,0,0,1-.65,1.24L17.348,50.074A11.056,11.056,0,0,0,9.837,60.727V69.65a1.665,1.665,0,0,0,1.627,1.7H59.089a1.665,1.665,0,0,0,1.627-1.7V59.727A11.055,11.055,0,0,0,53.191,49.07l-9.177-2.1a1,1,0,0,1-.73-1.191.958.958,0,0,1,1.14-.763l9.254,2.117a13.054,13.054,0,0,1,8.952,12.59V69.65a3.623,3.623,0,0,1-3.541,3.7Z" transform="translate(0 -1.714)" fill="#3c3b5f"/>
      <path id="Path_877" data-name="Path 877" d="M37,49.316a.994.994,0,0,1-.554-.167L29.3,44.4a1,1,0,0,1-.434-.986l.657-4.2a1,1,0,1,1,1.976.308L30.94,43.1,37,47.116l6.064-4.03L42.5,39.514a1,1,0,1,1,1.976-.308l.657,4.2a1,1,0,0,1-.434.987l-7.151,4.751a1,1,0,0,1-.548.172Z" transform="translate(-1.254 -1.042)" fill="#3c3b5f"/>
      <path id="Path_878" data-name="Path 878" d="M57.79,64.02a1.033,1.033,0,0,1-.221-.02l-1.628-.369a1,1,0,1,1,.442-1.95l.652.147.714-3.15a3.7,3.7,0,1,0-7.217-1.633l-.712,3.149.652.148a1,1,0,0,1-.441,1.951L48.4,61.92a1,1,0,0,1-.754-1.2l.934-4.126A5.7,5.7,0,1,1,59.7,59.115l-.934,4.125a1,1,0,0,1-.975.78Z" transform="translate(-2.447 -1.714)" fill="#3c3b5f"/>
      <path id="Path_879" data-name="Path 879" d="M18.119,55.84a1,1,0,0,1-.975-.784l-1.221-5.52a1,1,0,1,1,1.953-.432l1.221,5.52a1,1,0,0,1-.761,1.192.956.956,0,0,1-.217.024Z" transform="translate(0 -1.251)" fill="#3c3b5f"/>
      <path id="Path_880" data-name="Path 880" d="M55.231,54.28a1.055,1.055,0,0,1-.215-.023,1,1,0,0,1-.763-1.191l1.07-4.89a1,1,0,1,1,1.954.428l-1.07,4.89a1,1,0,0,1-.976.786Z" transform="translate(-2.447 -1.214)" fill="#3c3b5f"/>
      <path id="Path_881" data-name="Path 881" d="M19.562,62.879a4.668,4.668,0,1,1,4.667-4.668,4.668,4.668,0,0,1-4.667,4.668Zm0-7.335a2.668,2.668,0,1,0,2.667,2.667,2.668,2.668,0,0,0-2.667-2.667Z" transform="translate(0 -1.714)" fill="#3c3b5f"/>
      <circle id="Ellipse_28" data-name="Ellipse 28" cx="1.511" cy="1.511" r="1.511" transform="translate(17.593 55.323)" fill="#3c3b5f"/>
      <path id="Path_882" data-name="Path 882" d="M19.562,60.223a2.012,2.012,0,1,1,2.011-2.012,2.012,2.012,0,0,1-2.011,2.012Zm0-3.023a1.012,1.012,0,1,0,1.011,1.011A1.012,1.012,0,0,0,19.562,57.2Z" transform="translate(-0.443 -1.385)" fill="#3c3b5f"/>
    </g>
  </g>
</svg>
