<svg xmlns="http://www.w3.org/2000/svg" width="56.28" height="70.351" viewBox="0 0 56.28 70.351">
  <g id="Group_478" data-name="Group 478" transform="translate(916.839 -8736.203)">
    <circle id="Ellipse_29" data-name="Ellipse 29" cx="3.5" cy="3.5" r="3.5" transform="translate(-898 8761)" fill="#ef693d"/>
    <circle id="Ellipse_30" data-name="Ellipse 30" cx="3.5" cy="3.5" r="3.5" transform="translate(-886 8761)" fill="#ef693d"/>
    <g id="light-bulb" transform="translate(-964.842 8736.203)">
      <g id="Group_474" data-name="Group 474" transform="translate(48.003)">
        <g id="Group_473" data-name="Group 473">
          <path id="Path_883" data-name="Path 883" d="M233.175,7.035a1.173,1.173,0,0,0,1.172-1.172V1.172a1.173,1.173,0,0,0-2.345,0v4.69A1.172,1.172,0,0,0,233.175,7.035Z" transform="translate(-205.036)" fill="#3c3b5f"/>
          <path id="Path_884" data-name="Path 884" d="M140.136,26.374l2.345,4.06a1.173,1.173,0,0,0,2.039-1.159l-.008-.013-2.345-4.06a1.173,1.173,0,1,0-2.039,1.159Z" transform="translate(-126.495 -21.001)" fill="#3c3b5f"/>
          <path id="Path_885" data-name="Path 885" d="M73.191,94.157l.013.008,4.06,2.345a1.172,1.172,0,0,0,1.186-2.023l-.013-.008-4.06-2.345a1.172,1.172,0,1,0-1.186,2.023Z" transform="translate(-69.005 -78.493)" fill="#3c3b5f"/>
          <path id="Path_886" data-name="Path 886" d="M55.038,185.172A1.173,1.173,0,0,0,53.865,184h-4.69a1.173,1.173,0,0,0,0,2.345h4.69A1.173,1.173,0,0,0,55.038,185.172Z" transform="translate(-48.003 -157.033)" fill="#3c3b5f"/>
          <path id="Path_887" data-name="Path 887" d="M77.278,260.125l-.014.008-4.06,2.345a1.172,1.172,0,1,0,1.159,2.039l.014-.008,4.06-2.345a1.172,1.172,0,0,0-1.159-2.039Z" transform="translate(-69.004 -221.87)" fill="#3c3b5f"/>
          <path id="Path_888" data-name="Path 888" d="M369.435,262.486l-.014-.008-4.06-2.345a1.173,1.173,0,1,0-1.186,2.023l.014.008,4.06,2.345a1.173,1.173,0,0,0,1.186-2.023Z" transform="translate(-317.341 -221.87)" fill="#3c3b5f"/>
          <path id="Path_889" data-name="Path 889" d="M389.865,184h-4.69a1.173,1.173,0,0,0,0,2.345h4.69a1.173,1.173,0,1,0,0-2.345Z" transform="translate(-334.758 -157.033)" fill="#3c3b5f"/>
          <path id="Path_890" data-name="Path 890" d="M364.822,96.666a1.173,1.173,0,0,0,.586-.157l4.06-2.345a1.173,1.173,0,0,0-1.159-2.039l-.013.008-4.06,2.345a1.172,1.172,0,0,0,.586,2.188Z" transform="translate(-317.387 -78.492)" fill="#3c3b5f"/>
          <path id="Path_891" data-name="Path 891" d="M308.583,30.863h0a1.173,1.173,0,0,0,1.6-.43h0l2.345-4.06a1.173,1.173,0,1,0-2.023-1.186l-.008.014-2.345,4.06A1.173,1.173,0,0,0,308.583,30.863Z" transform="translate(-269.892 -21.001)" fill="#3c3b5f"/>
          <path id="Path_892" data-name="Path 892" d="M180.9,183.45a1.173,1.173,0,0,0,1.173-1.172v-12.9h2.345a4.69,4.69,0,1,0-4.69-4.69v2.345h-2.345V164.69a4.69,4.69,0,1,0-4.69,4.69h2.345v12.9a1.172,1.172,0,0,0,2.345,0v-12.9h2.345v12.9A1.172,1.172,0,0,0,180.9,183.45Zm1.173-18.76a2.345,2.345,0,1,1,2.345,2.345h-2.345Zm-7.035,2.345h-2.345a2.345,2.345,0,1,1,2.345-2.345Z" transform="translate(-150.416 -136.55)" fill="#3c3b5f"/>
          <path id="Path_893" data-name="Path 893" d="M131.736,64.024a18.76,18.76,0,0,0-12.8,33.239,3.494,3.494,0,0,1,1.339,2.681v2.75a3.517,3.517,0,0,0,2.345,3.3v1.388a3.5,3.5,0,0,0,.915,2.345,3.464,3.464,0,0,0,0,4.69,3.5,3.5,0,0,0,2.6,5.862,1.143,1.143,0,0,0,.964-1.8,1.242,1.242,0,0,0-.131-.2,1.212,1.212,0,0,0-.326-.213c-.034-.018-.068-.032-.1-.046a1.243,1.243,0,0,0-.369-.074c-.012,0-.022-.007-.034-.007a1.173,1.173,0,1,1,0-2.345h4.69a1.172,1.172,0,1,0,0-2.345h-4.69a1.172,1.172,0,1,1,0-2.345h4.69a1.172,1.172,0,1,0,0-2.345h-4.69a1.173,1.173,0,0,1-1.173-1.173v-1.172h5.862a1.173,1.173,0,0,0,0-2.345H123.79a1.173,1.173,0,0,1-1.173-1.172v-2.75a5.829,5.829,0,0,0-2.2-4.5A16.415,16.415,0,0,1,131.625,66.37,16.6,16.6,0,0,1,147.24,82.662a16.319,16.319,0,0,1-6.091,12.854,5.812,5.812,0,0,0-2.116,4.565v2.613a1.173,1.173,0,0,1-1.173,1.172h-3.517a1.173,1.173,0,0,0,0,2.345h2.345v1.172a1.173,1.173,0,0,1-1.172,1.173h-1.173a1.172,1.172,0,1,0,0,2.345h1.173a1.172,1.172,0,0,1,0,2.345h-1.173a1.172,1.172,0,1,0,0,2.345h1.173a1.173,1.173,0,0,1,0,2.345h-5.862a1.173,1.173,0,0,0,0,2.345h4.489a3.517,3.517,0,0,1-5.946,1.164,1.173,1.173,0,1,0-1.752,1.559,5.85,5.85,0,0,0,10.143-2.909,3.483,3.483,0,0,0,1.53-5.677,3.464,3.464,0,0,0,0-4.69,3.5,3.5,0,0,0,.915-2.345V106a3.517,3.517,0,0,0,2.345-3.3V100.08a3.525,3.525,0,0,1,1.244-2.74,18.649,18.649,0,0,0,6.963-14.7A18.978,18.978,0,0,0,131.736,64.024Z" transform="translate(-102.685 -54.622)" fill="#3c3b5f"/>
        </g>
      </g>
    </g>
  </g>
</svg>
