<svg xmlns="http://www.w3.org/2000/svg" width="60.278" height="60.278" viewBox="0 0 60.278 60.278">
  <g id="law" transform="translate(-16 -16)">
    <path id="Path_894" data-name="Path 894" d="M19.252,54.088V52.512H32.875l-.7,3.251-2.2,2.372-3.827,1.172-3.4-.493-2.255-2.629Z" fill="#ef693d"/>
    <path id="Path_895" data-name="Path 895" d="M19.252,54.088V52.512H32.875l-.7,3.251-2.2,2.372-3.827,1.172-3.4-.493-2.255-2.629Z" transform="translate(41)" fill="#ef693d"/>
    <path id="Path_868" data-name="Path 868" d="M235.014,88a3.014,3.014,0,1,0,3.014,3.014A3.014,3.014,0,0,0,235.014,88Zm0,4.019a1,1,0,1,1,1-1A1,1,0,0,1,235.014,92.019Z" transform="translate(-188.875 -62.958)" fill="#3c3b5f"/>
    <path id="Path_867" data-name="Path 867" d="M75.274,36.093H68.643a13.037,13.037,0,0,1-11.524-6.914l-1.229-2.3a11.032,11.032,0,0,0-5.732-5.1V20.019a4.019,4.019,0,1,0-8.037,0v1.758a11.033,11.033,0,0,0-5.732,5.1l-1.229,2.3a13.037,13.037,0,0,1-11.524,6.914H17a1,1,0,0,0-1,1v4.019a1,1,0,0,0,1,1h6.6l-3.288,9.042H19.014a1,1,0,0,0-1,1,8.037,8.037,0,1,0,16.074,0,1,1,0,0,0-1-1H31.773l-3.288-9.042h2.451a12.053,12.053,0,0,0,7.94-2.984l2.643-2.313a7.014,7.014,0,0,1,.6-.469V62.981L40.5,66.232H38.1a1,1,0,0,0-.8.4L34.586,70.25H30.065a1,1,0,0,0-1,1v4.019a1,1,0,0,0,1,1H62.213a1,1,0,0,0,1-1V71.255a1,1,0,0,0-1-1H57.692L54.98,66.634a1,1,0,0,0-.8-.4H51.783l-1.626-3.251V36.355a7.013,7.013,0,0,1,.6.469h0L53.4,39.138a12.052,12.052,0,0,0,7.939,2.983h2.451l-3.288,9.042H59.2a1,1,0,0,0-1,1,8.037,8.037,0,1,0,16.074,0,1,1,0,0,0-1-1H71.959l-3.288-9.042h6.6a1,1,0,0,0,1-1V37.1a1,1,0,0,0-1-1ZM44.13,20.019a2.009,2.009,0,1,1,4.019,0v1.189a11.044,11.044,0,0,0-4.019,0ZM26.046,58.195A6.038,6.038,0,0,1,20.1,53.172H31.991A6.038,6.038,0,0,1,26.046,58.195Zm3.589-7.032H22.458l3.288-9.042h.6ZM61.209,74.269H31.07V72.26H61.209ZM55.181,70.25H37.1L38.6,68.241h15.07Zm-6.926-6.583,1.282,2.565h-6.8l1.282-2.565a1,1,0,0,0,.106-.449V35.384a6.978,6.978,0,0,1,4.019,0V63.218a1,1,0,0,0,.106.449Zm17.977-5.473a6.038,6.038,0,0,1-5.944-5.023H72.176A6.038,6.038,0,0,1,66.232,58.195Zm3.589-7.032H62.643l3.288-9.042h.6Zm4.448-11.051H61.342a10.044,10.044,0,0,1-6.617-2.487l-2.643-2.313h0a9.026,9.026,0,0,0-11.887,0l-2.644,2.314a10.043,10.043,0,0,1-6.616,2.486H18.009V38.1h5.626a15.042,15.042,0,0,0,13.3-7.978l1.229-2.3a9.042,9.042,0,0,1,15.956,0l1.229,2.3a15.042,15.042,0,0,0,13.3,7.978h5.626Z" fill="#3c3b5f"/>
  </g>
</svg>
