<svg xmlns="http://www.w3.org/2000/svg" width="57.286" height="64.27" viewBox="0 0 57.286 64.27">
  <g id="Group_480" data-name="Group 480" transform="translate(1426.514 -8746.365)">
    <path id="Path_896" data-name="Path 896" d="M-1407.89,8785.743l1.927,5.049,4.379,2.684,5.108,1.01,3.309-1.01,3.5-3.827,1.429-3.905Z" fill="#ef693d"/>
    <g id="surface1" transform="translate(-1426.698 8746.365)">
      <path id="Path_869" data-name="Path 869" d="M56.648,30.491l-2.558-1.1V27.643A25.179,25.179,0,0,0,37.221,3.79V1.325A1.326,1.326,0,0,0,35.9,0H21.717a1.326,1.326,0,0,0-1.325,1.325V3.8A25.179,25.179,0,0,0,3.523,27.656v1.762L.992,30.491a1.324,1.324,0,0,0-.808,1.219v6.957a1.326,1.326,0,0,0,1.325,1.325H3.232v2.651a1.325,1.325,0,0,0,1.325,1.325H9.314a20.045,20.045,0,0,0,1.974,4.744L7.923,52.078a1.324,1.324,0,0,0,0,1.868l5.632,5.632a1.324,1.324,0,0,0,1.868,0l3.366-3.366a20.015,20.015,0,0,0,4.731,1.974v4.757a1.326,1.326,0,0,0,1.325,1.325H32.8a1.326,1.326,0,0,0,1.325-1.325V58.187a20,20,0,0,0,4.744-1.974l3.366,3.366a1.324,1.324,0,0,0,1.868,0l5.632-5.632a1.324,1.324,0,0,0,0-1.868l-3.366-3.366a20.046,20.046,0,0,0,1.975-4.744H53.1a1.326,1.326,0,0,0,1.325-1.325V39.993h1.723a1.325,1.325,0,0,0,1.325-1.325V31.711A1.325,1.325,0,0,0,56.648,30.491ZM23.016,2.664H34.571V24.807H23.042ZM51.785,41.318H47.372a1.325,1.325,0,0,0-1.325,1.046A17.419,17.419,0,0,1,43.622,48.2a1.325,1.325,0,0,0,.172,1.656l3.167,3.167-3.79,3.764L40,53.615a1.325,1.325,0,0,0-1.656-.172,17.428,17.428,0,0,1-5.831,2.425,1.325,1.325,0,0,0-1.047,1.325v4.466h-5.3V57.153a1.324,1.324,0,0,0-1.047-1.325,17.371,17.371,0,0,1-5.83-2.425,1.326,1.326,0,0,0-1.657.172l-3.167,3.167-3.75-3.751,3.167-3.167a1.325,1.325,0,0,0,.172-1.656,17.436,17.436,0,0,1-2.465-5.8,1.325,1.325,0,0,0-1.325-1.046H5.855V39.993H17.967a10.919,10.919,0,0,0,21.679,0H51.772ZM20.67,39.993H36.983a8.269,8.269,0,0,1-16.326,0Zm34.162-2.65H2.821V32.585l2.557-1.1a1.323,1.323,0,0,0,.808-1.219v-2.65a22.526,22.526,0,0,1,14.206-21v19.52a1.325,1.325,0,0,0,1.325,1.325H35.922a1.326,1.326,0,0,0,1.325-1.325V6.612a22.527,22.527,0,0,1,14.219,21.03v2.651a1.323,1.323,0,0,0,.808,1.219l2.557,1.1v4.731Zm0,0" transform="translate(0)" fill="#3c3b5f"/>
    </g>
  </g>
</svg>
